<?xml version="1.0" standalone="no"?>
<!DOCTYPE svg PUBLIC "-//W3C//DTD SVG 20010904//EN"
 "http://www.w3.org/TR/2001/REC-SVG-20010904/DTD/svg10.dtd">
<svg version="1.0" xmlns="http://www.w3.org/2000/svg"
 width="581.000000pt" height="558.000000pt" viewBox="0 0 581.000000 558.000000"
 preserveAspectRatio="xMidYMid meet">

<g transform="translate(0.000000,558.000000) scale(0.100000,-0.100000)"
fill="#000000" stroke="none">
<path d="M2045 5499 c-491 -7 -562 -12 -725 -54 -152 -39 -306 -108 -439 -198
-103 -69 -294 -263 -363 -367 -123 -186 -208 -412 -244 -645 -19 -127 -32
-2356 -15 -2588 20 -274 56 -425 145 -611 80 -169 162 -284 300 -421 230 -229
451 -346 776 -412 77 -15 208 -17 1374 -20 1092 -3 1305 -1 1400 11 306 41
604 181 819 385 202 193 318 386 402 670 67 225 68 238 72 951 6 917 -11 1989
-32 2100 -20 107 -95 331 -142 424 -88 176 -293 413 -440 510 -235 154 -459
234 -713 256 -136 12 -1558 18 -2175 9z m318 -625 c239 -54 381 -253 347 -488
-25 -169 -113 -297 -249 -364 l-76 -37 -135 0 c-128 0 -138 1 -193 28 -69 34
-171 133 -209 204 -74 136 -75 300 -2 446 38 76 144 174 209 193 129 37 203
41 308 18z m1349 -14 c123 -38 247 -166 282 -291 38 -135 30 -236 -29 -356
-61 -123 -178 -209 -319 -234 -223 -38 -396 45 -486 234 -97 202 -67 424 75
560 63 60 87 73 182 97 96 24 200 20 295 -10z m363 -1150 c129 -19 288 -59
354 -90 94 -44 243 -147 331 -228 138 -127 255 -313 318 -505 58 -175 76 -295
70 -475 -7 -206 -45 -350 -145 -547 -112 -221 -305 -415 -521 -525 -72 -36
-288 -97 -397 -111 -87 -12 -202 -5 -305 16 -455 96 -712 369 -1060 1125 -211
460 -567 776 -870 774 -148 -1 -296 -52 -419 -143 -120 -90 -175 -164 -232
-319 -27 -73 -32 -105 -36 -197 -6 -139 12 -231 68 -345 35 -70 59 -101 134
-175 159 -156 261 -197 490 -196 118 1 139 4 223 32 58 19 122 50 167 80 85
57 212 189 257 267 l31 54 17 -49 c36 -100 178 -369 231 -435 l29 -37 -80 -77
c-161 -154 -279 -230 -465 -299 -146 -55 -266 -77 -412 -76 -336 1 -603 112
-844 351 -180 178 -258 316 -331 582 -21 75 -23 104 -23 298 1 205 2 220 29
319 66 242 163 414 329 583 155 159 338 267 532 314 157 38 360 44 501 15 309
-64 590 -269 803 -586 104 -155 161 -261 271 -504 56 -124 129 -274 162 -335
135 -248 311 -412 507 -473 155 -48 349 -32 484 39 105 56 222 179 279 293 67
131 94 323 69 470 -30 173 -174 372 -334 464 -77 44 -215 81 -302 81 -172 0
-351 -93 -500 -259 -67 -74 -81 -96 -118 -181 -14 -30 -16 -32 -16 -11 -2 62
-110 291 -222 470 -33 51 -59 96 -59 100 0 4 32 41 70 83 79 86 191 176 283
228 34 19 73 43 87 52 14 9 52 24 85 31 33 8 74 20 90 27 86 35 261 48 390 30z"/>
<path d="M2408 163 c7 -3 16 -2 19 1 4 3 -2 6 -13 5 -11 0 -14 -3 -6 -6z"/>
<path d="M2458 163 c7 -3 16 -2 19 1 4 3 -2 6 -13 5 -11 0 -14 -3 -6 -6z"/>
<path d="M2633 163 c65 -2 168 -2 230 0 62 1 9 3 -118 3 -126 0 -177 -2 -112
-3z"/>
<path d="M3048 163 c6 -2 18 -2 25 0 6 3 1 5 -13 5 -14 0 -19 -2 -12 -5z"/>
<path d="M3108 163 c6 -2 18 -2 25 0 6 3 1 5 -13 5 -14 0 -19 -2 -12 -5z"/>
</g>
</svg>
